<svg width="92" height="93" viewBox="0 0 92 93" fill="none" xmlns="http://www.w3.org/2000/svg">
<path d="M9.85203 17.8109C12.2131 14.8177 14.9169 12.1116 17.908 9.7479C20.821 7.4609 21.417 8.56389 19.7211 12.6819C17.8762 17.2044 16.4391 21.8826 15.427 26.6609C14.463 31.1609 11.645 34.0259 7.65501 33.9259C3.66501 33.8259 2.34704 31.4389 3.79704 28.0529C5.36699 24.3929 7.40208 20.9506 9.85203 17.8109ZM7.19004 27.9369C6.61204 29.6769 7.20705 30.2989 8.46604 30.2369C9.72504 30.1749 10.693 29.4119 11.194 27.4989C12.4053 22.8322 14.1204 18.3109 16.309 14.0149C17.186 12.3069 16.878 12.1089 15.879 12.7359C14.6773 13.5151 13.671 14.5604 12.938 15.7909C10.529 19.5873 8.59841 23.6669 7.19004 27.9369Z" fill="white"/>
<path d="M25.279 11.514C23.3549 18.4881 22.0498 25.6184 21.379 32.822C19.9403 33.0006 18.526 33.152 17.136 33.276C18.1783 23.7293 20.686 14.4004 24.571 5.61795C25.9834 4.8786 27.4323 4.21108 28.912 3.61795C28.4278 8.87551 28.5927 14.1727 29.403 19.39C30.1574 13.6381 31.2371 7.93362 32.637 2.30396C33.7337 1.97062 34.848 1.67363 35.98 1.41296C34.2397 11.2039 33.1274 21.0961 32.65 31.029C30.904 31.348 29.175 31.652 27.47 31.929C25.9384 25.234 25.203 18.3815 25.279 11.514Z" fill="white"/>
<path d="M38.741 0.873932C40.0364 0.657932 41.3487 0.495939 42.6781 0.387939C42.2141 7.74094 41.857 16.05 41.634 24.908C44.448 24.416 47.3071 23.9629 50.0921 23.6029C50.1214 25.0283 50.148 26.472 50.172 27.934C45.594 28.61 40.887 29.4969 36.333 30.3499C36.749 19.7369 37.576 9.65693 38.741 0.873932Z" fill="white"/>
<path d="M51.041 0.442993C52.3604 0.568993 53.6634 0.748351 54.95 0.981018C56.062 8.43402 56.957 17.215 57.484 27.048C55.819 27.195 54.131 27.389 52.42 27.617C52.147 17.496 51.663 8.30899 51.041 0.442993Z" fill="white"/>
<path d="M62.488 8.4249C63.8054 14.4618 64.7737 20.5696 65.388 26.7179C63.958 26.6992 62.5093 26.7266 61.042 26.7999C60.4498 18.3261 59.3323 9.89725 57.696 1.56189C59.2633 1.94461 60.8094 2.40924 62.328 2.95389C64.765 7.37689 67.343 12.0919 69.912 17.1179C68.8895 12.8036 67.569 8.56546 65.96 4.4339C66.9874 4.90457 67.9944 5.41122 68.981 5.95389C72.2601 12.8985 74.5858 20.2544 75.895 27.8219C74.357 27.5032 72.7997 27.2549 71.223 27.0769C68.38 20.4329 65.356 14.2199 62.488 8.4249Z" fill="white"/>
<path d="M78.953 17.259C80.673 18.186 82.3731 19.21 84.0641 20.316C84.6254 21.2387 85.1587 22.1827 85.664 23.148C83.874 22.071 82.081 21.08 80.274 20.193C81.1552 22.3021 81.923 24.4569 82.574 26.648C85.0683 27.6709 87.5011 28.8378 89.86 30.143C90.246 31.179 90.5947 32.2327 90.906 33.304C87.1422 31.3257 83.1821 29.7458 79.0901 28.59C77.6089 21.1445 74.9863 13.9726 71.315 7.328C74.2203 9.15492 76.9182 11.2925 79.3611 13.703C80.1244 14.475 80.86 15.2727 81.568 16.096C79.8135 14.6107 77.974 13.2287 76.0591 11.957C77.1141 13.6735 78.08 15.4432 78.953 17.259Z" fill="white"/>
<path d="M7.60006 35.084C11.7881 35.214 13.706 37.51 13.51 42.284C13.458 43.5507 13.4304 44.822 13.427 46.098C13.418 50.79 11.3691 52.972 6.89108 51.79C6.19108 51.596 5.49674 51.389 4.80807 51.169C5.05791 54.2863 5.55376 57.3789 6.29104 60.418C4.84637 59.818 3.41305 59.16 1.99105 58.444C-0.0295905 50.6276 -0.072229 42.431 1.86703 34.594C3.64203 34.823 5.56806 34.995 7.60006 35.084ZM5.10006 38.621C4.72733 41.5549 4.56891 44.5121 4.62606 47.469C5.30673 47.6597 5.99538 47.837 6.69204 48.001C8.09804 48.327 8.84008 47.878 8.85208 45.847C8.85941 44.447 8.90541 43.0546 8.99008 41.67C9.11408 39.643 8.42908 39.011 7.07608 38.87C6.40508 38.796 5.74507 38.713 5.09707 38.621H5.10006Z" fill="#46AAFF"/>
<path d="M15.299 42.113C15.488 37.284 18.2991 34.572 23.0641 33.948C27.8291 33.324 30.445 35.617 30.333 40.856C30.214 46.462 30.285 52.116 30.518 57.399C30.733 62.299 28.269 65.108 23.685 64.809C21.6435 64.7925 19.6861 63.9939 18.2155 62.5777C16.745 61.1615 15.8734 59.2354 15.7801 57.196C15.2642 52.186 15.1035 47.1457 15.299 42.113ZM20.523 57.924C20.702 59.995 21.7351 60.781 23.2571 60.832C24.7791 60.883 25.6861 60.137 25.5461 57.991C25.2021 52.68 25.082 46.946 25.24 41.226C25.304 38.907 24.3401 38.235 22.7751 38.401C21.2101 38.567 20.1751 39.422 20.1031 41.68C19.9239 47.0982 20.0644 52.5223 20.524 57.924H20.523Z" fill="#46AAFF"/>
<path d="M40.603 50.927C40.0563 52.021 39.5167 53.1017 38.984 54.169C39.0287 57.449 39.0987 60.649 39.194 63.769C37.482 63.993 35.794 64.181 34.129 64.322C33.4927 53.745 33.4226 43.1415 33.9191 32.557C35.6371 32.243 37.371 31.914 39.119 31.587C39.001 36.226 38.938 40.974 38.934 45.781C41.274 40.54 43.705 35.297 46.034 30.328C47.805 30.028 49.566 29.736 51.3 29.479C48.976 34.416 46.415 39.744 43.891 45.164C46.408 50.803 48.991 56.371 51.324 61.793C49.524 62.126 47.705 62.452 45.891 62.757C44.156 58.883 42.368 54.943 40.603 50.927Z" fill="#46AAFF"/>
<path d="M53.642 29.1489C55.357 28.9219 57.048 28.7309 58.716 28.5859C59.3421 39.1729 59.4009 49.7857 58.892 60.3789C57.176 60.6929 55.444 61.0209 53.701 61.3479C54.006 50.6379 53.988 39.8579 53.642 29.1489Z" fill="#46AAFF"/>
<path d="M67.974 40.6719C70.258 40.5419 72.498 40.5159 74.694 40.6099C74.7607 42.0099 74.802 43.4299 74.818 44.8699C72.611 44.8459 70.357 44.9359 68.059 45.1239C68.078 48.2089 68.019 51.3309 67.877 54.4169C70.756 54.0569 73.564 53.8169 76.277 53.7169C76.1817 55.1436 76.0594 56.5649 75.91 57.9809C71.682 58.2979 67.21 58.9249 62.599 59.7189C63.2422 49.2666 63.1469 38.7819 62.314 28.3429C66.619 28.119 70.9356 28.3628 75.188 29.0699C75.388 30.3166 75.5663 31.5862 75.723 32.8789C73.0055 32.5103 70.2653 32.3348 67.523 32.3539C67.731 35.0426 67.8814 37.8152 67.974 40.6719Z" fill="#46AAFF"/>
<path d="M83.881 31.1179C88.181 32.6779 90.899 35.8709 91.417 39.7269C91.4504 39.9782 91.4837 40.2303 91.517 40.4829C90.1737 39.9129 88.8093 39.3929 87.424 38.9229C87.383 38.5739 87.338 38.2279 87.291 37.8819C87.2474 37.1437 86.9744 36.4374 86.5101 35.8617C86.0458 35.2861 85.4134 34.8698 84.701 34.6709C83.301 34.2129 82.601 34.6429 82.839 36.5409C83.485 41.6639 92.411 45.3569 91.504 52.4929C91.004 56.4049 88.585 58.1479 84.52 58.0669C80.455 57.9859 78.402 55.6079 78.62 50.8099C78.6474 50.2059 78.669 49.6019 78.685 48.9979C80.159 49.0553 81.6044 49.1632 83.021 49.3219C82.9964 49.9886 82.963 50.6576 82.921 51.3289C82.791 53.3779 83.595 54.0839 84.956 54.2009C86.317 54.3179 87.245 53.8089 87.417 51.9009C87.917 46.3119 79.11 43.4679 78.304 35.8679C77.835 31.5019 79.598 29.6129 83.881 31.1179Z" fill="#46AAFF"/>
<path d="M10.203 71.466C11.881 72.394 13.572 73.2326 15.276 73.982C15.6627 74.9986 16.067 75.991 16.489 76.959C14.8624 76.169 13.256 75.2923 11.67 74.329C13.1096 76.9527 14.771 79.4485 16.636 81.789C15.6793 80.985 14.7554 80.1433 13.864 79.264C8.47794 73.785 4.52088 67.0663 2.34103 59.699C5.99421 61.6029 9.83118 63.131 13.793 64.26C14.041 65.4393 14.31 66.5956 14.6 67.729C12.2095 66.9681 9.87124 66.0522 7.60001 64.987C8.33321 67.1983 9.20256 69.3621 10.203 71.466Z" fill="white"/>
<path d="M15.93 64.804C17.4174 65.1486 18.921 65.4273 20.441 65.64C21.5885 73.3498 23.6272 80.9003 26.516 88.14C25.3747 87.5966 24.26 87.0086 23.172 86.3759C19.7532 79.5626 17.315 72.3001 15.93 64.804Z" fill="white"/>
<path d="M28.891 73.6029C29.6802 79.2678 30.8011 84.8814 32.248 90.4149C31.152 90.0629 30.074 89.6719 29.014 89.2419C26.4942 81.6869 24.7306 73.9004 23.749 65.9969C25.695 66.1479 27.674 66.1969 29.691 66.1629C31.846 71.7799 34.047 77.138 36.122 82.248C35.54 77.224 35.061 71.7569 34.722 65.9099C36.1974 65.7906 37.691 65.6373 39.203 65.45C39.542 75.485 40.13 84.55 40.872 92.291C39.53 92.1303 38.2064 91.9139 36.901 91.6419C34.419 86.0209 31.663 80.0079 28.891 73.6029Z" fill="white"/>
<path d="M42.891 64.949C45.627 64.549 48.428 64.066 51.184 63.564C56.461 62.594 58.797 64.891 58.423 69.886C58.0321 75.1 57.511 80.139 56.874 84.897C56.259 89.478 54.0551 92.197 50.0531 92.478C47.9422 92.6408 45.8227 92.6622 43.709 92.542C43.338 84.516 43.051 75.173 42.891 64.949ZM48.097 68.529C48.03 75.82 47.931 82.69 47.806 88.929C48.606 88.8823 49.4024 88.8203 50.195 88.743C51.537 88.615 52.395 87.857 52.55 85.833C52.925 81.024 53.234 75.907 53.468 70.584C53.568 68.346 52.62 67.757 50.99 68.042C50.028 68.2107 49.0637 68.373 48.097 68.529Z" fill="white"/>
<path d="M65.577 73.625C67.659 73.168 69.698 72.708 71.677 72.257C71.369 73.6263 71.0357 74.9787 70.677 76.314C68.784 76.841 66.831 77.353 64.835 77.843C64.292 80.689 63.674 83.461 62.984 86.13C65.1861 85.4457 67.3502 84.6446 69.467 83.73C68.9817 84.9547 68.471 86.1547 67.935 87.33C64.8595 88.947 61.6108 90.2107 58.251 91.097C60.2768 81.3561 61.5734 71.4777 62.1301 61.544C66.7201 60.729 71.177 60.052 75.388 59.657C75.2187 61.0716 75.023 62.478 74.801 63.876C72.194 64.229 69.484 64.664 66.701 65.153C66.399 68.019 66.024 70.851 65.577 73.625Z" fill="white"/>
<path d="M76.369 81.6349C76.635 81.2559 76.743 81.1049 77.922 79.4259C78.6667 78.3659 79.3737 77.2756 80.043 76.1549C81.223 74.1789 80.979 73.6499 79.343 74.2399C78.9364 74.3886 78.5237 74.5366 78.105 74.6839C76.7258 77.9745 75.0622 81.1385 73.133 84.1399C72.1097 84.8632 71.0564 85.5456 69.9731 86.1869C74.2294 77.8023 77.0158 68.7497 78.211 59.4229C80.475 59.2749 82.654 59.2119 84.711 59.2289C88.987 59.3199 89.984 61.2999 88.619 64.5789C88.383 65.1449 88.1367 65.7049 87.88 66.2589C86.9549 68.2664 85.4786 69.9699 83.623 71.1709C84.923 71.3299 84.423 72.5889 82.997 74.5079C82.2904 75.4599 81.549 76.3826 80.773 77.2759C80.021 78.1439 79.53 78.6849 79.173 79.0429C78.2763 79.9463 77.3417 80.8102 76.369 81.6349ZM81.821 63.0939C81.2051 65.8097 80.4291 68.4868 79.497 71.1109C79.9924 70.9843 80.4804 70.8582 80.961 70.7329C81.7096 70.5465 82.3961 70.167 82.9522 69.6323C83.5082 69.0977 83.9144 68.4265 84.13 67.6859C84.4294 66.9086 84.712 66.1239 84.978 65.3319C85.566 63.5799 85.178 62.8559 83.778 62.9449C83.136 62.9889 82.484 63.0399 81.821 63.0939Z" fill="white"/>
</svg>
